<!-- icon666.com - MILLIONS vector ICONS FREE --><svg id="Layer_1" viewBox="0 0 512 512" xmlns="http://www.w3.org/2000/svg" data-name="Layer 1"><path d="m256 0c-141.385 0-256 114.615-256 256s114.615 256 256 256 256-114.615 256-256-114.615-256-256-256zm-72.565 382.667h-57.054v-179.014h57.054zm-28.527-202.459a32.1 32.1 0 1 1 32.1-32.1 32.1 32.1 0 0 1 -32.1 32.1zm234.292 202.459h-56v-97.882c0-4.973.785-37.949-27.219-37.949a30.948 30.948 0 0 0 -25.681 12.576 39.134 39.134 0 0 0 -7.818 23.8v99.451h-55.932v-179.01h53.216v25.124c12.737-19.541 28.789-26.694 44.578-29.573 28.027-5.11 74.851 11.952 74.851 62.9z" fill="#000000" style="fill: rgb(163, 163, 163);"></path></svg>